<svg version="1.1" xmlns="http://www.w3.org/2000/svg" xmlns:xlink="http://www.w3.org/1999/xlink" width="900" height="697"><defs><clipPath id="KQPbdXwwtblP"><path fill="none" stroke="none" d=" M 0 0 L 900 0 L 900 697 L 0 697 L 0 0 Z"/></clipPath></defs><g transform="scale(1,1)" clip-path="url(#KQPbdXwwtblP)"><g><rect fill="rgb(255,255,255)" stroke="none" x="0" y="0" width="900" height="697" fill-opacity="1"/><path fill="none" stroke="rgb(97,97,97)" paint-order="fill stroke markers" d=" M 229.1100723891974 384.36490073153755 C 229.1100723891974 439.0665472012229 184.76562626544296 483.410993324977 130.06397979575738 483.410993324977 C 75.36233332607176 483.410993324977 31.01788720231734 439.0665472012229 31.01788720231734 384.36490073153755 C 31.01788720231734 329.66325426185216 75.36233332607176 285.318808138098 130.06397979575738 285.318808138098 C 184.76562626544296 285.318808138098 229.1100723891974 329.66325426185216 229.1100723891974 384.36490073153755 Z" stroke-opacity="0.8" stroke-linecap="round" stroke-linejoin="round" stroke-miterlimit="10" stroke-width="2.5"/><path fill="none" stroke="rgb(97,97,97)" paint-order="fill stroke markers" d=" M 687.7987990493648 379.0346973170462 C 687.7987990493648 406.3855205518889 665.6265759874876 428.557743613766 638.2757527526448 428.557743613766 C 610.924929517802 428.557743613766 588.7527064559248 406.3855205518889 588.7527064559248 379.0346973170462 C 588.7527064559248 351.68387408220354 610.924929517802 329.51165102032644 638.2757527526448 329.51165102032644 C 665.6265759874876 329.51165102032644 687.7987990493648 351.68387408220354 687.7987990493648 379.0346973170462 Z" stroke-opacity="0.8" stroke-linecap="round" stroke-linejoin="round" stroke-miterlimit="10" stroke-width="2.5"/><path fill="none" stroke="rgb(97,97,97)" paint-order="fill stroke markers" d=" M 229.05515270344708 387.66280072822883 L 589.2089244814492 385.74129689597396" stroke-opacity="0.8" stroke-linecap="round" stroke-linejoin="round" stroke-miterlimit="10" stroke-width="2.5"/><path fill="rgb(21,101,192)" stroke="none" paint-order="stroke fill markers" d=" M 135.06397979575738 384.36490073153755 C 135.06397979575738 387.1263244806915 132.82540354491135 389.36490073153755 130.06397979575738 389.36490073153755 C 127.30255604660341 389.36490073153755 125.06397979575738 387.1263244806915 125.06397979575738 384.36490073153755 C 125.06397979575738 381.6034769823836 127.30255604660341 379.36490073153755 130.06397979575738 379.36490073153755 C 132.82540354491135 379.36490073153755 135.06397979575738 381.6034769823836 135.06397979575738 384.36490073153755 Z" fill-opacity="1"/><path fill="none" stroke="rgb(0,0,0)" paint-order="fill stroke markers" d=" M 135.06397979575738 384.36490073153755 C 135.06397979575738 387.1263244806915 132.82540354491135 389.36490073153755 130.06397979575738 389.36490073153755 C 127.30255604660341 389.36490073153755 125.06397979575738 387.1263244806915 125.06397979575738 384.36490073153755 C 125.06397979575738 381.6034769823836 127.30255604660341 379.36490073153755 130.06397979575738 379.36490073153755 C 132.82540354491135 379.36490073153755 135.06397979575738 381.6034769823836 135.06397979575738 384.36490073153755 Z" stroke-opacity="1" stroke-linecap="round" stroke-linejoin="round" stroke-miterlimit="10"/><text fill="rgb(21,101,192)" stroke="none" font-family="geogebra-sans-serif, sans-serif" font-size="16px" font-style="normal" font-weight="normal" text-decoration="normal" x="134" y="374" text-anchor="start" dominant-baseline="alphabetic" fill-opacity="1">O</text><text fill="none" stroke="rgb(255,255,255)" font-family="geogebra-sans-serif, sans-serif" font-size="16px" font-style="normal" font-weight="normal" text-decoration="normal" x="134" y="374" text-anchor="start" dominant-baseline="alphabetic" stroke-opacity="1" stroke-linejoin="bevel" stroke-miterlimit="10" stroke-width="3">O</text><text fill="rgb(21,101,192)" stroke="none" font-family="geogebra-sans-serif, sans-serif" font-size="16px" font-style="normal" font-weight="normal" text-decoration="normal" x="134" y="374" text-anchor="start" dominant-baseline="alphabetic" fill-opacity="1">O</text><text fill="rgb(21,101,192)" stroke="none" font-family="geogebra-sans-serif, sans-serif" font-size="14px" font-style="normal" font-weight="normal" text-decoration="normal" x="146" y="381" text-anchor="start" dominant-baseline="alphabetic" fill-opacity="1">1</text><text fill="none" stroke="rgb(255,255,255)" font-family="geogebra-sans-serif, sans-serif" font-size="14px" font-style="normal" font-weight="normal" text-decoration="normal" x="146" y="381" text-anchor="start" dominant-baseline="alphabetic" stroke-opacity="1" stroke-linejoin="bevel" stroke-miterlimit="10" stroke-width="3">1</text><text fill="rgb(21,101,192)" stroke="none" font-family="geogebra-sans-serif, sans-serif" font-size="14px" font-style="normal" font-weight="normal" text-decoration="normal" x="146" y="381" text-anchor="start" dominant-baseline="alphabetic" fill-opacity="1">1</text><path fill="rgb(21,101,192)" stroke="none" paint-order="stroke fill markers" d=" M 643.2757527526448 379.0346973170462 C 643.2757527526448 381.79612106620016 641.0371765017989 384.0346973170462 638.2757527526448 384.0346973170462 C 635.5143290034908 384.0346973170462 633.2757527526448 381.79612106620016 633.2757527526448 379.0346973170462 C 633.2757527526448 376.27327356789226 635.5143290034908 374.0346973170462 638.2757527526448 374.0346973170462 C 641.0371765017989 374.0346973170462 643.2757527526448 376.27327356789226 643.2757527526448 379.0346973170462 Z" fill-opacity="1"/><path fill="none" stroke="rgb(0,0,0)" paint-order="fill stroke markers" d=" M 643.2757527526448 379.0346973170462 C 643.2757527526448 381.79612106620016 641.0371765017989 384.0346973170462 638.2757527526448 384.0346973170462 C 635.5143290034908 384.0346973170462 633.2757527526448 381.79612106620016 633.2757527526448 379.0346973170462 C 633.2757527526448 376.27327356789226 635.5143290034908 374.0346973170462 638.2757527526448 374.0346973170462 C 641.0371765017989 374.0346973170462 643.2757527526448 376.27327356789226 643.2757527526448 379.0346973170462 Z" stroke-opacity="1" stroke-linecap="round" stroke-linejoin="round" stroke-miterlimit="10"/><text fill="rgb(21,101,192)" stroke="none" font-family="geogebra-sans-serif, sans-serif" font-size="16px" font-style="normal" font-weight="normal" text-decoration="normal" x="642" y="369" text-anchor="start" dominant-baseline="alphabetic" fill-opacity="1">O</text><text fill="none" stroke="rgb(255,255,255)" font-family="geogebra-sans-serif, sans-serif" font-size="16px" font-style="normal" font-weight="normal" text-decoration="normal" x="642" y="369" text-anchor="start" dominant-baseline="alphabetic" stroke-opacity="1" stroke-linejoin="bevel" stroke-miterlimit="10" stroke-width="3">O</text><text fill="rgb(21,101,192)" stroke="none" font-family="geogebra-sans-serif, sans-serif" font-size="16px" font-style="normal" font-weight="normal" text-decoration="normal" x="642" y="369" text-anchor="start" dominant-baseline="alphabetic" fill-opacity="1">O</text><text fill="rgb(21,101,192)" stroke="none" font-family="geogebra-sans-serif, sans-serif" font-size="14px" font-style="normal" font-weight="normal" text-decoration="normal" x="654" y="376" text-anchor="start" dominant-baseline="alphabetic" fill-opacity="1">2</text><text fill="none" stroke="rgb(255,255,255)" font-family="geogebra-sans-serif, sans-serif" font-size="14px" font-style="normal" font-weight="normal" text-decoration="normal" x="654" y="376" text-anchor="start" dominant-baseline="alphabetic" stroke-opacity="1" stroke-linejoin="bevel" stroke-miterlimit="10" stroke-width="3">2</text><text fill="rgb(21,101,192)" stroke="none" font-family="geogebra-sans-serif, sans-serif" font-size="14px" font-style="normal" font-weight="normal" text-decoration="normal" x="654" y="376" text-anchor="start" dominant-baseline="alphabetic" fill-opacity="1">2</text><path fill="rgb(21,101,192)" stroke="none" paint-order="stroke fill markers" d=" M 234.05515270344708 387.66280072822883 C 234.05515270344708 390.4242244773828 231.81657645260105 392.66280072822883 229.05515270344708 392.66280072822883 C 226.2937289542931 392.66280072822883 224.05515270344708 390.4242244773828 224.05515270344708 387.66280072822883 C 224.05515270344708 384.9013769790749 226.2937289542931 382.66280072822883 229.05515270344708 382.66280072822883 C 231.81657645260105 382.66280072822883 234.05515270344708 384.9013769790749 234.05515270344708 387.66280072822883 Z" fill-opacity="1"/><path fill="none" stroke="rgb(0,0,0)" paint-order="fill stroke markers" d=" M 234.05515270344708 387.66280072822883 C 234.05515270344708 390.4242244773828 231.81657645260105 392.66280072822883 229.05515270344708 392.66280072822883 C 226.2937289542931 392.66280072822883 224.05515270344708 390.4242244773828 224.05515270344708 387.66280072822883 C 224.05515270344708 384.9013769790749 226.2937289542931 382.66280072822883 229.05515270344708 382.66280072822883 C 231.81657645260105 382.66280072822883 234.05515270344708 384.9013769790749 234.05515270344708 387.66280072822883 Z" stroke-opacity="1" stroke-linecap="round" stroke-linejoin="round" stroke-miterlimit="10"/><text fill="rgb(21,101,192)" stroke="none" font-family="geogebra-sans-serif, sans-serif" font-size="16px" font-style="normal" font-weight="normal" text-decoration="normal" x="233" y="378" text-anchor="start" dominant-baseline="alphabetic" fill-opacity="1">A</text><text fill="none" stroke="rgb(255,255,255)" font-family="geogebra-sans-serif, sans-serif" font-size="16px" font-style="normal" font-weight="normal" text-decoration="normal" x="233" y="378" text-anchor="start" dominant-baseline="alphabetic" stroke-opacity="1" stroke-linejoin="bevel" stroke-miterlimit="10" stroke-width="3">A</text><text fill="rgb(21,101,192)" stroke="none" font-family="geogebra-sans-serif, sans-serif" font-size="16px" font-style="normal" font-weight="normal" text-decoration="normal" x="233" y="378" text-anchor="start" dominant-baseline="alphabetic" fill-opacity="1">A</text><path fill="rgb(21,101,192)" stroke="none" paint-order="stroke fill markers" d=" M 594.2089244814492 385.74129689597396 C 594.2089244814492 388.5027206451279 591.9703482306032 390.74129689597396 589.2089244814492 390.74129689597396 C 586.4475007322952 390.74129689597396 584.2089244814492 388.5027206451279 584.2089244814492 385.74129689597396 C 584.2089244814492 382.97987314682 586.4475007322952 380.74129689597396 589.2089244814492 380.74129689597396 C 591.9703482306032 380.74129689597396 594.2089244814492 382.97987314682 594.2089244814492 385.74129689597396 Z" fill-opacity="1"/><path fill="none" stroke="rgb(0,0,0)" paint-order="fill stroke markers" d=" M 594.2089244814492 385.74129689597396 C 594.2089244814492 388.5027206451279 591.9703482306032 390.74129689597396 589.2089244814492 390.74129689597396 C 586.4475007322952 390.74129689597396 584.2089244814492 388.5027206451279 584.2089244814492 385.74129689597396 C 584.2089244814492 382.97987314682 586.4475007322952 380.74129689597396 589.2089244814492 380.74129689597396 C 591.9703482306032 380.74129689597396 594.2089244814492 382.97987314682 594.2089244814492 385.74129689597396 Z" stroke-opacity="1" stroke-linecap="round" stroke-linejoin="round" stroke-miterlimit="10"/><text fill="rgb(21,101,192)" stroke="none" font-family="geogebra-sans-serif, sans-serif" font-size="16px" font-style="normal" font-weight="normal" text-decoration="normal" x="593" y="376" text-anchor="start" dominant-baseline="alphabetic" fill-opacity="1">B</text><text fill="none" stroke="rgb(255,255,255)" font-family="geogebra-sans-serif, sans-serif" font-size="16px" font-style="normal" font-weight="normal" text-decoration="normal" x="593" y="376" text-anchor="start" dominant-baseline="alphabetic" stroke-opacity="1" stroke-linejoin="bevel" stroke-miterlimit="10" stroke-width="3">B</text><text fill="rgb(21,101,192)" stroke="none" font-family="geogebra-sans-serif, sans-serif" font-size="16px" font-style="normal" font-weight="normal" text-decoration="normal" x="593" y="376" text-anchor="start" dominant-baseline="alphabetic" fill-opacity="1">B</text><g transform="scale(19,19)"><g transform="translate(8.526315789473685,21.99878947368421)"><path fill="rgb(0,0,0)" stroke="none" paint-order="stroke fill markers" d=" M 0.449 -0.17400000000000002 L 0.449 -0.17400000000000002 L 0.421 0 L 0.05 0 Q 0.05 -0.025 0.056 -0.032 L 0.061 -0.037 L 0.253 -0.251 Q 0.358 -0.369 0.358 -0.47200000000000003 Q 0.358 -0.561 0.304 -0.607 L 0.303 -0.608 L 0.302 -0.608 Q 0.27 -0.635 0.224 -0.635 Q 0.152 -0.635 0.109 -0.5730000000000001 Q 0.097 -0.555 0.089 -0.533 Q 0.092 -0.534 0.10200000000000001 -0.534 Q 0.14200000000000002 -0.534 0.153 -0.498 L 0.153 -0.497 Q 0.155 -0.49 0.155 -0.482 Q 0.155 -0.442 0.117 -0.431 Q 0.109 -0.429 0.10300000000000001 -0.429 Q 0.066 -0.429 0.054 -0.46 Q 0.05 -0.47100000000000003 0.05 -0.485 Q 0.05 -0.562 0.109 -0.617 Q 0.162 -0.666 0.23700000000000002 -0.666 Q 0.34700000000000003 -0.666 0.40800000000000003 -0.592 Q 0.443 -0.549 0.448 -0.49 Q 0.449 -0.481 0.449 -0.47200000000000003 Q 0.449 -0.399 0.394 -0.333 Q 0.365 -0.299 0.304 -0.243 L 0.243 -0.189 L 0.233 -0.18 L 0.127 -0.077 L 0.307 -0.077 Q 0.395 -0.077 0.402 -0.085 Q 0.41200000000000003 -0.099 0.424 -0.17400000000000002 L 0.449 -0.17400000000000002 Z"/></g><g transform="translate(9.026315789473685,21.99878947368421)"><path fill="rgb(0,0,0)" stroke="none" paint-order="stroke fill markers" d=" M 0.375 -0.614 L 0.31 -0.353 L 0.422 -0.353 Q 0.533 -0.353 0.591 -0.41100000000000003 Q 0.635 -0.455 0.645 -0.533 L 0.645 -0.534 Q 0.646 -0.545 0.646 -0.553 Q 0.646 -0.642 0.52 -0.651 L 0.518 -0.651 Q 0.499 -0.652 0.464 -0.652 Q 0.41200000000000003 -0.652 0.403 -0.651 Q 0.385 -0.648 0.379 -0.629 L 0.379 -0.629 Q 0.378 -0.624 0.375 -0.614 M 0.519 -0.34 L 0.519 -0.34 Q 0.605 -0.308 0.612 -0.23500000000000001 Q 0.613 -0.229 0.613 -0.222 Q 0.613 -0.203 0.609 -0.17500000000000002 Q 0.599 -0.095 0.599 -0.061 Q 0.599 -0.009000000000000001 0.625 -0.002 L 0.626 -0.002 Q 0.632 0 0.639 0 Q 0.682 0 0.712 -0.052000000000000005 Q 0.723 -0.069 0.73 -0.091 Q 0.734 -0.105 0.743 -0.105 Q 0.755 -0.105 0.755 -0.093 Q 0.755 -0.073 0.731 -0.037 Q 0.712 -0.008 0.687 0.008 Q 0.663 0.022 0.635 0.022 Q 0.552 0.022 0.519 -0.027 Q 0.502 -0.051000000000000004 0.502 -0.08600000000000001 Q 0.502 -0.107 0.518 -0.171 Q 0.532 -0.225 0.532 -0.24 Q 0.532 -0.302 0.47600000000000003 -0.322 L 0.47600000000000003 -0.323 Q 0.453 -0.331 0.423 -0.331 L 0.304 -0.331 L 0.23800000000000002 -0.066 L 0.23500000000000001 -0.049 Q 0.23500000000000001 -0.032 0.281 -0.031 L 0.281 -0.031 L 0.281 -0.031 L 0.3 -0.031 Q 0.326 -0.031 0.328 -0.02 Q 0.328 0 0.308 0 L 0.182 -0.003 L 0.181 -0.003 L 0.056 0 L 0.055 0 Q 0.041 0 0.041 -0.011 Q 0.041 -0.029 0.056 -0.031 L 0.068 -0.031 Q 0.133 -0.031 0.146 -0.045 Q 0.152 -0.052000000000000005 0.158 -0.073 Q 0.158 -0.074 0.159 -0.078 L 0.293 -0.615 Q 0.297 -0.631 0.297 -0.634 Q 0.297 -0.646 0.281 -0.649 L 0.28 -0.649 L 0.279 -0.649 Q 0.276 -0.649 0.27 -0.65 Q 0.253 -0.652 0.232 -0.652 Q 0.20600000000000002 -0.652 0.20400000000000001 -0.663 Q 0.20400000000000001 -0.681 0.219 -0.683 L 0.233 -0.683 L 0.518 -0.683 Q 0.643 -0.683 0.704 -0.617 Q 0.739 -0.581 0.739 -0.533 Q 0.739 -0.446 0.632 -0.384 Q 0.58 -0.353 0.519 -0.34 Z"/></g><g transform="translate(9.785315789473685,22.148789473684207) scale(0.7,0.7)"><path fill="rgb(0,0,0)" stroke="none" paint-order="stroke fill markers" d=" M 0.46 -0.32 Q 0.46 -0.17400000000000002 0.423 -0.094 Q 0.364 0.018000000000000002 0.249 0.022 Q 0.158 0.022 0.10300000000000001 -0.05 Q 0.092 -0.063 0.084 -0.079 Q 0.039 -0.162 0.039 -0.32 Q 0.039 -0.467 0.076 -0.547 Q 0.126 -0.659 0.23800000000000002 -0.666 L 0.25 -0.666 Q 0.339 -0.666 0.395 -0.595 L 0.395 -0.594 Q 0.40900000000000003 -0.5760000000000001 0.42 -0.554 Q 0.46 -0.46900000000000003 0.46 -0.32 M 0.249 0 L 0.249 0 Q 0.312 0 0.34600000000000003 -0.061 Q 0.36 -0.088 0.366 -0.125 Q 0.377 -0.189 0.377 -0.332 Q 0.377 -0.47100000000000003 0.367 -0.527 Q 0.34900000000000003 -0.622 0.275 -0.641 Q 0.262 -0.644 0.249 -0.644 Q 0.179 -0.644 0.147 -0.5740000000000001 Q 0.136 -0.55 0.13 -0.516 Q 0.122 -0.462 0.122 -0.332 Q 0.122 -0.181 0.133 -0.121 Q 0.151 -0.025 0.221 -0.004 Q 0.23500000000000001 0 0.249 0 Z"/></g></g><g transform="scale(19,19)"><g transform="translate(9.842105263157896,15.472473684210525)"><path fill="rgb(0,0,0)" stroke="none" paint-order="stroke fill markers" d=" M 0.29 -0.352 L 0.29 -0.352 Q 0.39 -0.332 0.434 -0.254 Q 0.457 -0.215 0.457 -0.171 Q 0.457 -0.08600000000000001 0.387 -0.028 Q 0.326 0.022 0.244 0.022 Q 0.145 0.022 0.085 -0.037 Q 0.042 -0.079 0.042 -0.135 Q 0.042 -0.182 0.084 -0.191 Q 0.091 -0.193 0.098 -0.193 Q 0.136 -0.193 0.149 -0.161 Q 0.153 -0.148 0.154 -0.137 Q 0.154 -0.097 0.11800000000000001 -0.085 Q 0.10400000000000001 -0.08 0.088 -0.082 Q 0.125 -0.02 0.216 -0.008 Q 0.229 -0.006 0.241 -0.006 Q 0.305 -0.006 0.335 -0.069 Q 0.354 -0.109 0.354 -0.171 Q 0.354 -0.304 0.274 -0.331 Q 0.256 -0.337 0.23500000000000001 -0.337 L 0.191 -0.337 Q 0.169 -0.337 0.167 -0.34800000000000003 Q 0.167 -0.358 0.182 -0.36 Q 0.197 -0.36 0.221 -0.363 Q 0.272 -0.365 0.301 -0.402 L 0.301 -0.403 L 0.302 -0.404 L 0.303 -0.405 L 0.304 -0.405 L 0.31 -0.41500000000000004 Q 0.338 -0.462 0.338 -0.529 Q 0.338 -0.622 0.266 -0.638 Q 0.254 -0.641 0.242 -0.641 Q 0.17200000000000001 -0.641 0.128 -0.601 Q 0.117 -0.591 0.109 -0.579 Q 0.171 -0.579 0.171 -0.529 Q 0.171 -0.493 0.14 -0.481 Q 0.131 -0.47800000000000004 0.12 -0.47800000000000004 Q 0.081 -0.47800000000000004 0.07100000000000001 -0.513 L 0.07100000000000001 -0.513 L 0.07100000000000001 -0.514 Q 0.069 -0.522 0.069 -0.53 Q 0.069 -0.597 0.135 -0.637 Q 0.183 -0.666 0.246 -0.666 Q 0.337 -0.666 0.393 -0.612 L 0.395 -0.61 Q 0.43 -0.5740000000000001 0.43 -0.528 Q 0.43 -0.445 0.359 -0.389 Q 0.328 -0.365 0.29 -0.352 Z"/></g><g transform="translate(10.342105263157896,15.472473684210525)"><path fill="rgb(0,0,0)" stroke="none" paint-order="stroke fill markers" d=" M 0.438 -0.006 L 0.438 -0.006 Q 0.448 0.073 0.47500000000000003 0.089 Q 0.488 0.097 0.509 0.097 Q 0.558 0.097 0.596 0.054 Q 0.616 0.032 0.626 0.001 Q 0.63 -0.01 0.638 -0.01 Q 0.649 -0.01 0.649 0 Q 0.649 0.019 0.625 0.07200000000000001 Q 0.5690000000000001 0.194 0.482 0.194 Q 0.399 0.194 0.399 0.084 Q 0.399 0.069 0.403 0.007 Q 0.35000000000000003 0.022 0.305 0.022 Q 0.18 0.022 0.108 -0.066 Q 0.049 -0.138 0.049 -0.245 Q 0.049 -0.395 0.156 -0.529 Q 0.255 -0.65 0.388 -0.6900000000000001 Q 0.437 -0.705 0.485 -0.705 Q 0.612 -0.705 0.684 -0.613 Q 0.74 -0.541 0.74 -0.436 Q 0.74 -0.28200000000000003 0.63 -0.149 Q 0.546 -0.047 0.438 -0.006 M 0.249 -0.014 L 0.243 -0.037 L 0.243 -0.046 Q 0.243 -0.095 0.28700000000000003 -0.128 Q 0.314 -0.148 0.34500000000000003 -0.148 Q 0.41600000000000004 -0.148 0.432 -0.049 Q 0.432 -0.046 0.433 -0.04 Q 0.5660000000000001 -0.114 0.624 -0.305 Q 0.652 -0.394 0.652 -0.468 Q 0.652 -0.598 0.5720000000000001 -0.652 L 0.5710000000000001 -0.653 L 0.5710000000000001 -0.653 Q 0.531 -0.68 0.47900000000000004 -0.68 Q 0.384 -0.68 0.295 -0.596 Q 0.265 -0.5680000000000001 0.23900000000000002 -0.532 Q 0.161 -0.42 0.14100000000000001 -0.266 Q 0.137 -0.23600000000000002 0.137 -0.213 Q 0.137 -0.08 0.223 -0.027 Q 0.23500000000000001 -0.02 0.249 -0.014 M 0.311 -0.003 L 0.311 -0.003 Q 0.352 -0.003 0.395 -0.021 Q 0.405 -0.034 0.406 -0.041 Q 0.406 -0.117 0.36 -0.125 L 0.359 -0.125 Q 0.353 -0.126 0.34500000000000003 -0.126 Q 0.304 -0.126 0.278 -0.088 Q 0.265 -0.067 0.265 -0.046 Q 0.265 -0.003 0.311 -0.003 Z"/></g><g transform="translate(11.133105263157896,15.622473684210526) scale(0.7,0.7)"><path fill="rgb(0,0,0)" stroke="none" paint-order="stroke fill markers" d=" M 0.46 -0.32 Q 0.46 -0.17400000000000002 0.423 -0.094 Q 0.364 0.018000000000000002 0.249 0.022 Q 0.158 0.022 0.10300000000000001 -0.05 Q 0.092 -0.063 0.084 -0.079 Q 0.039 -0.162 0.039 -0.32 Q 0.039 -0.467 0.076 -0.547 Q 0.126 -0.659 0.23800000000000002 -0.666 L 0.25 -0.666 Q 0.339 -0.666 0.395 -0.595 L 0.395 -0.594 Q 0.40900000000000003 -0.5760000000000001 0.42 -0.554 Q 0.46 -0.46900000000000003 0.46 -0.32 M 0.249 0 L 0.249 0 Q 0.312 0 0.34600000000000003 -0.061 Q 0.36 -0.088 0.366 -0.125 Q 0.377 -0.189 0.377 -0.332 Q 0.377 -0.47100000000000003 0.367 -0.527 Q 0.34900000000000003 -0.622 0.275 -0.641 Q 0.262 -0.644 0.249 -0.644 Q 0.179 -0.644 0.147 -0.5740000000000001 Q 0.136 -0.55 0.13 -0.516 Q 0.122 -0.462 0.122 -0.332 Q 0.122 -0.181 0.133 -0.121 Q 0.151 -0.025 0.221 -0.004 Q 0.23500000000000001 0 0.249 0 Z"/></g></g><g transform="scale(19,19)"><g transform="translate(8.526315789473685,21.99878947368421)"><path fill="rgb(0,0,0)" stroke="none" paint-order="stroke fill markers" d=" M 0.449 -0.17400000000000002 L 0.449 -0.17400000000000002 L 0.421 0 L 0.05 0 Q 0.05 -0.025 0.056 -0.032 L 0.061 -0.037 L 0.253 -0.251 Q 0.358 -0.369 0.358 -0.47200000000000003 Q 0.358 -0.561 0.304 -0.607 L 0.303 -0.608 L 0.302 -0.608 Q 0.27 -0.635 0.224 -0.635 Q 0.152 -0.635 0.109 -0.5730000000000001 Q 0.097 -0.555 0.089 -0.533 Q 0.092 -0.534 0.10200000000000001 -0.534 Q 0.14200000000000002 -0.534 0.153 -0.498 L 0.153 -0.497 Q 0.155 -0.49 0.155 -0.482 Q 0.155 -0.442 0.117 -0.431 Q 0.109 -0.429 0.10300000000000001 -0.429 Q 0.066 -0.429 0.054 -0.46 Q 0.05 -0.47100000000000003 0.05 -0.485 Q 0.05 -0.562 0.109 -0.617 Q 0.162 -0.666 0.23700000000000002 -0.666 Q 0.34700000000000003 -0.666 0.40800000000000003 -0.592 Q 0.443 -0.549 0.448 -0.49 Q 0.449 -0.481 0.449 -0.47200000000000003 Q 0.449 -0.399 0.394 -0.333 Q 0.365 -0.299 0.304 -0.243 L 0.243 -0.189 L 0.233 -0.18 L 0.127 -0.077 L 0.307 -0.077 Q 0.395 -0.077 0.402 -0.085 Q 0.41200000000000003 -0.099 0.424 -0.17400000000000002 L 0.449 -0.17400000000000002 Z"/></g><g transform="translate(9.026315789473685,21.99878947368421)"><path fill="rgb(0,0,0)" stroke="none" paint-order="stroke fill markers" d=" M 0.375 -0.614 L 0.31 -0.353 L 0.422 -0.353 Q 0.533 -0.353 0.591 -0.41100000000000003 Q 0.635 -0.455 0.645 -0.533 L 0.645 -0.534 Q 0.646 -0.545 0.646 -0.553 Q 0.646 -0.642 0.52 -0.651 L 0.518 -0.651 Q 0.499 -0.652 0.464 -0.652 Q 0.41200000000000003 -0.652 0.403 -0.651 Q 0.385 -0.648 0.379 -0.629 L 0.379 -0.629 Q 0.378 -0.624 0.375 -0.614 M 0.519 -0.34 L 0.519 -0.34 Q 0.605 -0.308 0.612 -0.23500000000000001 Q 0.613 -0.229 0.613 -0.222 Q 0.613 -0.203 0.609 -0.17500000000000002 Q 0.599 -0.095 0.599 -0.061 Q 0.599 -0.009000000000000001 0.625 -0.002 L 0.626 -0.002 Q 0.632 0 0.639 0 Q 0.682 0 0.712 -0.052000000000000005 Q 0.723 -0.069 0.73 -0.091 Q 0.734 -0.105 0.743 -0.105 Q 0.755 -0.105 0.755 -0.093 Q 0.755 -0.073 0.731 -0.037 Q 0.712 -0.008 0.687 0.008 Q 0.663 0.022 0.635 0.022 Q 0.552 0.022 0.519 -0.027 Q 0.502 -0.051000000000000004 0.502 -0.08600000000000001 Q 0.502 -0.107 0.518 -0.171 Q 0.532 -0.225 0.532 -0.24 Q 0.532 -0.302 0.47600000000000003 -0.322 L 0.47600000000000003 -0.323 Q 0.453 -0.331 0.423 -0.331 L 0.304 -0.331 L 0.23800000000000002 -0.066 L 0.23500000000000001 -0.049 Q 0.23500000000000001 -0.032 0.281 -0.031 L 0.281 -0.031 L 0.281 -0.031 L 0.3 -0.031 Q 0.326 -0.031 0.328 -0.02 Q 0.328 0 0.308 0 L 0.182 -0.003 L 0.181 -0.003 L 0.056 0 L 0.055 0 Q 0.041 0 0.041 -0.011 Q 0.041 -0.029 0.056 -0.031 L 0.068 -0.031 Q 0.133 -0.031 0.146 -0.045 Q 0.152 -0.052000000000000005 0.158 -0.073 Q 0.158 -0.074 0.159 -0.078 L 0.293 -0.615 Q 0.297 -0.631 0.297 -0.634 Q 0.297 -0.646 0.281 -0.649 L 0.28 -0.649 L 0.279 -0.649 Q 0.276 -0.649 0.27 -0.65 Q 0.253 -0.652 0.232 -0.652 Q 0.20600000000000002 -0.652 0.20400000000000001 -0.663 Q 0.20400000000000001 -0.681 0.219 -0.683 L 0.233 -0.683 L 0.518 -0.683 Q 0.643 -0.683 0.704 -0.617 Q 0.739 -0.581 0.739 -0.533 Q 0.739 -0.446 0.632 -0.384 Q 0.58 -0.353 0.519 -0.34 Z"/></g><g transform="translate(9.785315789473685,22.148789473684207) scale(0.7,0.7)"><path fill="rgb(0,0,0)" stroke="none" paint-order="stroke fill markers" d=" M 0.46 -0.32 Q 0.46 -0.17400000000000002 0.423 -0.094 Q 0.364 0.018000000000000002 0.249 0.022 Q 0.158 0.022 0.10300000000000001 -0.05 Q 0.092 -0.063 0.084 -0.079 Q 0.039 -0.162 0.039 -0.32 Q 0.039 -0.467 0.076 -0.547 Q 0.126 -0.659 0.23800000000000002 -0.666 L 0.25 -0.666 Q 0.339 -0.666 0.395 -0.595 L 0.395 -0.594 Q 0.40900000000000003 -0.5760000000000001 0.42 -0.554 Q 0.46 -0.46900000000000003 0.46 -0.32 M 0.249 0 L 0.249 0 Q 0.312 0 0.34600000000000003 -0.061 Q 0.36 -0.088 0.366 -0.125 Q 0.377 -0.189 0.377 -0.332 Q 0.377 -0.47100000000000003 0.367 -0.527 Q 0.34900000000000003 -0.622 0.275 -0.641 Q 0.262 -0.644 0.249 -0.644 Q 0.179 -0.644 0.147 -0.5740000000000001 Q 0.136 -0.55 0.13 -0.516 Q 0.122 -0.462 0.122 -0.332 Q 0.122 -0.181 0.133 -0.121 Q 0.151 -0.025 0.221 -0.004 Q 0.23500000000000001 0 0.249 0 Z"/></g></g><g transform="scale(19,19)"><g transform="translate(9.842105263157896,15.472473684210525)"><path fill="rgb(0,0,0)" stroke="none" paint-order="stroke fill markers" d=" M 0.29 -0.352 L 0.29 -0.352 Q 0.39 -0.332 0.434 -0.254 Q 0.457 -0.215 0.457 -0.171 Q 0.457 -0.08600000000000001 0.387 -0.028 Q 0.326 0.022 0.244 0.022 Q 0.145 0.022 0.085 -0.037 Q 0.042 -0.079 0.042 -0.135 Q 0.042 -0.182 0.084 -0.191 Q 0.091 -0.193 0.098 -0.193 Q 0.136 -0.193 0.149 -0.161 Q 0.153 -0.148 0.154 -0.137 Q 0.154 -0.097 0.11800000000000001 -0.085 Q 0.10400000000000001 -0.08 0.088 -0.082 Q 0.125 -0.02 0.216 -0.008 Q 0.229 -0.006 0.241 -0.006 Q 0.305 -0.006 0.335 -0.069 Q 0.354 -0.109 0.354 -0.171 Q 0.354 -0.304 0.274 -0.331 Q 0.256 -0.337 0.23500000000000001 -0.337 L 0.191 -0.337 Q 0.169 -0.337 0.167 -0.34800000000000003 Q 0.167 -0.358 0.182 -0.36 Q 0.197 -0.36 0.221 -0.363 Q 0.272 -0.365 0.301 -0.402 L 0.301 -0.403 L 0.302 -0.404 L 0.303 -0.405 L 0.304 -0.405 L 0.31 -0.41500000000000004 Q 0.338 -0.462 0.338 -0.529 Q 0.338 -0.622 0.266 -0.638 Q 0.254 -0.641 0.242 -0.641 Q 0.17200000000000001 -0.641 0.128 -0.601 Q 0.117 -0.591 0.109 -0.579 Q 0.171 -0.579 0.171 -0.529 Q 0.171 -0.493 0.14 -0.481 Q 0.131 -0.47800000000000004 0.12 -0.47800000000000004 Q 0.081 -0.47800000000000004 0.07100000000000001 -0.513 L 0.07100000000000001 -0.513 L 0.07100000000000001 -0.514 Q 0.069 -0.522 0.069 -0.53 Q 0.069 -0.597 0.135 -0.637 Q 0.183 -0.666 0.246 -0.666 Q 0.337 -0.666 0.393 -0.612 L 0.395 -0.61 Q 0.43 -0.5740000000000001 0.43 -0.528 Q 0.43 -0.445 0.359 -0.389 Q 0.328 -0.365 0.29 -0.352 Z"/></g><g transform="translate(10.342105263157896,15.472473684210525)"><path fill="rgb(0,0,0)" stroke="none" paint-order="stroke fill markers" d=" M 0.438 -0.006 L 0.438 -0.006 Q 0.448 0.073 0.47500000000000003 0.089 Q 0.488 0.097 0.509 0.097 Q 0.558 0.097 0.596 0.054 Q 0.616 0.032 0.626 0.001 Q 0.63 -0.01 0.638 -0.01 Q 0.649 -0.01 0.649 0 Q 0.649 0.019 0.625 0.07200000000000001 Q 0.5690000000000001 0.194 0.482 0.194 Q 0.399 0.194 0.399 0.084 Q 0.399 0.069 0.403 0.007 Q 0.35000000000000003 0.022 0.305 0.022 Q 0.18 0.022 0.108 -0.066 Q 0.049 -0.138 0.049 -0.245 Q 0.049 -0.395 0.156 -0.529 Q 0.255 -0.65 0.388 -0.6900000000000001 Q 0.437 -0.705 0.485 -0.705 Q 0.612 -0.705 0.684 -0.613 Q 0.74 -0.541 0.74 -0.436 Q 0.74 -0.28200000000000003 0.63 -0.149 Q 0.546 -0.047 0.438 -0.006 M 0.249 -0.014 L 0.243 -0.037 L 0.243 -0.046 Q 0.243 -0.095 0.28700000000000003 -0.128 Q 0.314 -0.148 0.34500000000000003 -0.148 Q 0.41600000000000004 -0.148 0.432 -0.049 Q 0.432 -0.046 0.433 -0.04 Q 0.5660000000000001 -0.114 0.624 -0.305 Q 0.652 -0.394 0.652 -0.468 Q 0.652 -0.598 0.5720000000000001 -0.652 L 0.5710000000000001 -0.653 L 0.5710000000000001 -0.653 Q 0.531 -0.68 0.47900000000000004 -0.68 Q 0.384 -0.68 0.295 -0.596 Q 0.265 -0.5680000000000001 0.23900000000000002 -0.532 Q 0.161 -0.42 0.14100000000000001 -0.266 Q 0.137 -0.23600000000000002 0.137 -0.213 Q 0.137 -0.08 0.223 -0.027 Q 0.23500000000000001 -0.02 0.249 -0.014 M 0.311 -0.003 L 0.311 -0.003 Q 0.352 -0.003 0.395 -0.021 Q 0.405 -0.034 0.406 -0.041 Q 0.406 -0.117 0.36 -0.125 L 0.359 -0.125 Q 0.353 -0.126 0.34500000000000003 -0.126 Q 0.304 -0.126 0.278 -0.088 Q 0.265 -0.067 0.265 -0.046 Q 0.265 -0.003 0.311 -0.003 Z"/></g><g transform="translate(11.133105263157896,15.622473684210526) scale(0.7,0.7)"><path fill="rgb(0,0,0)" stroke="none" paint-order="stroke fill markers" d=" M 0.46 -0.32 Q 0.46 -0.17400000000000002 0.423 -0.094 Q 0.364 0.018000000000000002 0.249 0.022 Q 0.158 0.022 0.10300000000000001 -0.05 Q 0.092 -0.063 0.084 -0.079 Q 0.039 -0.162 0.039 -0.32 Q 0.039 -0.467 0.076 -0.547 Q 0.126 -0.659 0.23800000000000002 -0.666 L 0.25 -0.666 Q 0.339 -0.666 0.395 -0.595 L 0.395 -0.594 Q 0.40900000000000003 -0.5760000000000001 0.42 -0.554 Q 0.46 -0.46900000000000003 0.46 -0.32 M 0.249 0 L 0.249 0 Q 0.312 0 0.34600000000000003 -0.061 Q 0.36 -0.088 0.366 -0.125 Q 0.377 -0.189 0.377 -0.332 Q 0.377 -0.47100000000000003 0.367 -0.527 Q 0.34900000000000003 -0.622 0.275 -0.641 Q 0.262 -0.644 0.249 -0.644 Q 0.179 -0.644 0.147 -0.5740000000000001 Q 0.136 -0.55 0.13 -0.516 Q 0.122 -0.462 0.122 -0.332 Q 0.122 -0.181 0.133 -0.121 Q 0.151 -0.025 0.221 -0.004 Q 0.23500000000000001 0 0.249 0 Z"/></g></g><g transform="scale(19,19)"><g transform="translate(35.36842105263158,17.840894736842106)"><path fill="rgb(0,0,0)" stroke="none" paint-order="stroke fill markers" d=" M 0.47600000000000003 -0.609 L 0.341 -0.419 Q 0.298 -0.359 0.279 -0.248 Q 0.268 -0.17400000000000002 0.268 -0.084 L 0.268 -0.033 Q 0.268 0.022 0.222 0.022 Q 0.176 0.022 0.176 -0.033 Q 0.176 -0.2 0.273 -0.368 L 0.299 -0.40900000000000003 L 0.41100000000000003 -0.5670000000000001 L 0.20400000000000001 -0.5670000000000001 Q 0.113 -0.5670000000000001 0.106 -0.561 Q 0.096 -0.552 0.081 -0.47000000000000003 L 0.056 -0.47000000000000003 L 0.089 -0.676 L 0.114 -0.676 Q 0.11800000000000001 -0.659 0.132 -0.653 L 0.133 -0.653 L 0.133 -0.653 Q 0.159 -0.644 0.242 -0.644 L 0.485 -0.644 Q 0.485 -0.621 0.47600000000000003 -0.609 Z"/></g><g transform="translate(35.86842105263158,17.840894736842106)"><path fill="rgb(0,0,0)" stroke="none" paint-order="stroke fill markers" d=" M 0.438 -0.006 L 0.438 -0.006 Q 0.448 0.073 0.47500000000000003 0.089 Q 0.488 0.097 0.509 0.097 Q 0.558 0.097 0.596 0.054 Q 0.616 0.032 0.626 0.001 Q 0.63 -0.01 0.638 -0.01 Q 0.649 -0.01 0.649 0 Q 0.649 0.019 0.625 0.07200000000000001 Q 0.5690000000000001 0.194 0.482 0.194 Q 0.399 0.194 0.399 0.084 Q 0.399 0.069 0.403 0.007 Q 0.35000000000000003 0.022 0.305 0.022 Q 0.18 0.022 0.108 -0.066 Q 0.049 -0.138 0.049 -0.245 Q 0.049 -0.395 0.156 -0.529 Q 0.255 -0.65 0.388 -0.6900000000000001 Q 0.437 -0.705 0.485 -0.705 Q 0.612 -0.705 0.684 -0.613 Q 0.74 -0.541 0.74 -0.436 Q 0.74 -0.28200000000000003 0.63 -0.149 Q 0.546 -0.047 0.438 -0.006 M 0.249 -0.014 L 0.243 -0.037 L 0.243 -0.046 Q 0.243 -0.095 0.28700000000000003 -0.128 Q 0.314 -0.148 0.34500000000000003 -0.148 Q 0.41600000000000004 -0.148 0.432 -0.049 Q 0.432 -0.046 0.433 -0.04 Q 0.5660000000000001 -0.114 0.624 -0.305 Q 0.652 -0.394 0.652 -0.468 Q 0.652 -0.598 0.5720000000000001 -0.652 L 0.5710000000000001 -0.653 L 0.5710000000000001 -0.653 Q 0.531 -0.68 0.47900000000000004 -0.68 Q 0.384 -0.68 0.295 -0.596 Q 0.265 -0.5680000000000001 0.23900000000000002 -0.532 Q 0.161 -0.42 0.14100000000000001 -0.266 Q 0.137 -0.23600000000000002 0.137 -0.213 Q 0.137 -0.08 0.223 -0.027 Q 0.23500000000000001 -0.02 0.249 -0.014 M 0.311 -0.003 L 0.311 -0.003 Q 0.352 -0.003 0.395 -0.021 Q 0.405 -0.034 0.406 -0.041 Q 0.406 -0.117 0.36 -0.125 L 0.359 -0.125 Q 0.353 -0.126 0.34500000000000003 -0.126 Q 0.304 -0.126 0.278 -0.088 Q 0.265 -0.067 0.265 -0.046 Q 0.265 -0.003 0.311 -0.003 Z"/></g><g transform="translate(36.65942105263158,17.990894736842105) scale(0.7,0.7)"><path fill="rgb(0,0,0)" stroke="none" paint-order="stroke fill markers" d=" M 0.46 -0.32 Q 0.46 -0.17400000000000002 0.423 -0.094 Q 0.364 0.018000000000000002 0.249 0.022 Q 0.158 0.022 0.10300000000000001 -0.05 Q 0.092 -0.063 0.084 -0.079 Q 0.039 -0.162 0.039 -0.32 Q 0.039 -0.467 0.076 -0.547 Q 0.126 -0.659 0.23800000000000002 -0.666 L 0.25 -0.666 Q 0.339 -0.666 0.395 -0.595 L 0.395 -0.594 Q 0.40900000000000003 -0.5760000000000001 0.42 -0.554 Q 0.46 -0.46900000000000003 0.46 -0.32 M 0.249 0 L 0.249 0 Q 0.312 0 0.34600000000000003 -0.061 Q 0.36 -0.088 0.366 -0.125 Q 0.377 -0.189 0.377 -0.332 Q 0.377 -0.47100000000000003 0.367 -0.527 Q 0.34900000000000003 -0.622 0.275 -0.641 Q 0.262 -0.644 0.249 -0.644 Q 0.179 -0.644 0.147 -0.5740000000000001 Q 0.136 -0.55 0.13 -0.516 Q 0.122 -0.462 0.122 -0.332 Q 0.122 -0.181 0.133 -0.121 Q 0.151 -0.025 0.221 -0.004 Q 0.23500000000000001 0 0.249 0 Z"/></g></g><g transform="scale(19,19)"><g transform="translate(34.36842105263158,21.788263157894736)"><path fill="rgb(0,0,0)" stroke="none" paint-order="stroke fill markers" d=" M 0.375 -0.614 L 0.31 -0.353 L 0.422 -0.353 Q 0.533 -0.353 0.591 -0.41100000000000003 Q 0.635 -0.455 0.645 -0.533 L 0.645 -0.534 Q 0.646 -0.545 0.646 -0.553 Q 0.646 -0.642 0.52 -0.651 L 0.518 -0.651 Q 0.499 -0.652 0.464 -0.652 Q 0.41200000000000003 -0.652 0.403 -0.651 Q 0.385 -0.648 0.379 -0.629 L 0.379 -0.629 Q 0.378 -0.624 0.375 -0.614 M 0.519 -0.34 L 0.519 -0.34 Q 0.605 -0.308 0.612 -0.23500000000000001 Q 0.613 -0.229 0.613 -0.222 Q 0.613 -0.203 0.609 -0.17500000000000002 Q 0.599 -0.095 0.599 -0.061 Q 0.599 -0.009000000000000001 0.625 -0.002 L 0.626 -0.002 Q 0.632 0 0.639 0 Q 0.682 0 0.712 -0.052000000000000005 Q 0.723 -0.069 0.73 -0.091 Q 0.734 -0.105 0.743 -0.105 Q 0.755 -0.105 0.755 -0.093 Q 0.755 -0.073 0.731 -0.037 Q 0.712 -0.008 0.687 0.008 Q 0.663 0.022 0.635 0.022 Q 0.552 0.022 0.519 -0.027 Q 0.502 -0.051000000000000004 0.502 -0.08600000000000001 Q 0.502 -0.107 0.518 -0.171 Q 0.532 -0.225 0.532 -0.24 Q 0.532 -0.302 0.47600000000000003 -0.322 L 0.47600000000000003 -0.323 Q 0.453 -0.331 0.423 -0.331 L 0.304 -0.331 L 0.23800000000000002 -0.066 L 0.23500000000000001 -0.049 Q 0.23500000000000001 -0.032 0.281 -0.031 L 0.281 -0.031 L 0.281 -0.031 L 0.3 -0.031 Q 0.326 -0.031 0.328 -0.02 Q 0.328 0 0.308 0 L 0.182 -0.003 L 0.181 -0.003 L 0.056 0 L 0.055 0 Q 0.041 0 0.041 -0.011 Q 0.041 -0.029 0.056 -0.031 L 0.068 -0.031 Q 0.133 -0.031 0.146 -0.045 Q 0.152 -0.052000000000000005 0.158 -0.073 Q 0.158 -0.074 0.159 -0.078 L 0.293 -0.615 Q 0.297 -0.631 0.297 -0.634 Q 0.297 -0.646 0.281 -0.649 L 0.28 -0.649 L 0.279 -0.649 Q 0.276 -0.649 0.27 -0.65 Q 0.253 -0.652 0.232 -0.652 Q 0.20600000000000002 -0.652 0.20400000000000001 -0.663 Q 0.20400000000000001 -0.681 0.219 -0.683 L 0.233 -0.683 L 0.518 -0.683 Q 0.643 -0.683 0.704 -0.617 Q 0.739 -0.581 0.739 -0.533 Q 0.739 -0.446 0.632 -0.384 Q 0.58 -0.353 0.519 -0.34 Z"/></g><g transform="translate(35.12742105263158,21.938263157894735) scale(0.7,0.7)"><path fill="rgb(0,0,0)" stroke="none" paint-order="stroke fill markers" d=" M 0.46 -0.32 Q 0.46 -0.17400000000000002 0.423 -0.094 Q 0.364 0.018000000000000002 0.249 0.022 Q 0.158 0.022 0.10300000000000001 -0.05 Q 0.092 -0.063 0.084 -0.079 Q 0.039 -0.162 0.039 -0.32 Q 0.039 -0.467 0.076 -0.547 Q 0.126 -0.659 0.23800000000000002 -0.666 L 0.25 -0.666 Q 0.339 -0.666 0.395 -0.595 L 0.395 -0.594 Q 0.40900000000000003 -0.5760000000000001 0.42 -0.554 Q 0.46 -0.46900000000000003 0.46 -0.32 M 0.249 0 L 0.249 0 Q 0.312 0 0.34600000000000003 -0.061 Q 0.36 -0.088 0.366 -0.125 Q 0.377 -0.189 0.377 -0.332 Q 0.377 -0.47100000000000003 0.367 -0.527 Q 0.34900000000000003 -0.622 0.275 -0.641 Q 0.262 -0.644 0.249 -0.644 Q 0.179 -0.644 0.147 -0.5740000000000001 Q 0.136 -0.55 0.13 -0.516 Q 0.122 -0.462 0.122 -0.332 Q 0.122 -0.181 0.133 -0.121 Q 0.151 -0.025 0.221 -0.004 Q 0.23500000000000001 0 0.249 0 Z"/></g></g><g transform="scale(19,19)"><g transform="translate(22.526315789473685,19.74663157894737)"><path fill="rgb(0,0,0)" stroke="none" paint-order="stroke fill markers" d=" M 0.601 -0.047 L 0.601 0 L 0.418 0.006 L 0.418 -0.043000000000000003 Q 0.357 0.006 0.278 0.006 Q 0.168 0.006 0.10300000000000001 -0.0575 Q 0.038 -0.121 0.038 -0.221 Q 0.038 -0.325 0.108 -0.3875 Q 0.178 -0.45 0.289 -0.45 Q 0.366 -0.45 0.424 -0.405 L 0.424 -0.6 Q 0.424 -0.628 0.41350000000000003 -0.6335000000000001 Q 0.403 -0.639 0.355 -0.639 L 0.355 -0.686 L 0.532 -0.6940000000000001 L 0.532 -0.08600000000000001 Q 0.532 -0.058 0.5425 -0.0525 Q 0.553 -0.047 0.601 -0.047 M 0.418 -0.353 Q 0.372 -0.41400000000000003 0.299 -0.41400000000000003 Q 0.228 -0.41400000000000003 0.192 -0.362 Q 0.166 -0.323 0.166 -0.221 Q 0.166 -0.196 0.1665 -0.1815 Q 0.167 -0.167 0.17 -0.14100000000000001 Q 0.17300000000000001 -0.115 0.181 -0.0985 Q 0.189 -0.082 0.202 -0.0645 Q 0.215 -0.047 0.23700000000000002 -0.0385 Q 0.259 -0.03 0.28800000000000003 -0.03 Q 0.365 -0.03 0.418 -0.10300000000000001 L 0.418 -0.353 Z"/></g><g transform="translate(23.165315789473684,19.74663157894737)"><path fill="rgb(0,0,0)" stroke="none" paint-order="stroke fill markers" d=" M 0.224 -0.45 L 0.224 -0.047 L 0.28600000000000003 -0.047 L 0.28600000000000003 0 Q 0.178 -0.003 0.169 -0.003 Q 0.14 -0.003 0.047 0 L 0.047 -0.047 L 0.116 -0.047 L 0.116 -0.356 Q 0.116 -0.384 0.106 -0.3895 Q 0.096 -0.395 0.05 -0.395 L 0.05 -0.442 L 0.224 -0.45 M 0.211 -0.6725 Q 0.211 -0.6725 0.2225 -0.66125 Q 0.234 -0.65 0.234 -0.617 Q 0.234 -0.584 0.211 -0.5615 Q 0.188 -0.539 0.156 -0.539 Q 0.124 -0.539 0.101 -0.562 Q 0.078 -0.585 0.078 -0.617 Q 0.078 -0.649 0.101 -0.672 Q 0.124 -0.6950000000000001 0.156 -0.6950000000000001 Q 0.188 -0.6950000000000001 0.211 -0.6725 Z"/></g><g transform="translate(23.484315789473683,19.74663157894737)"><path fill="rgb(0,0,0)" stroke="none" paint-order="stroke fill markers" d=" M 0.211 -0.294 Q 0.276 -0.28300000000000003 0.3045 -0.2745 Q 0.333 -0.266 0.36 -0.246 Q 0.41500000000000004 -0.202 0.41500000000000004 -0.14 Q 0.41500000000000004 -0.105 0.404 -0.0785 Q 0.393 -0.052000000000000005 0.3735 -0.037 Q 0.354 -0.022 0.335 -0.0125 Q 0.316 -0.003 0.291 0.0005 Q 0.266 0.004 0.255 0.005 Q 0.244 0.006 0.23 0.006 Q 0.158 0.006 0.112 -0.026000000000000002 Q 0.08700000000000001 -0.009000000000000001 0.08600000000000001 -0.009000000000000001 Q 0.065 0.006 0.056 0.006 Q 0.044 0.006 0.041 0 Q 0.038 -0.006 0.038 -0.022 L 0.038 -0.131 Q 0.038 -0.15 0.0415 -0.155 Q 0.045 -0.16 0.062 -0.16 Q 0.074 -0.16 0.0785 -0.158 Q 0.083 -0.156 0.08600000000000001 -0.146 Q 0.092 -0.125 0.0995 -0.109 Q 0.107 -0.093 0.1225 -0.0725 Q 0.138 -0.052000000000000005 0.1655 -0.041 Q 0.193 -0.03 0.23 -0.03 Q 0.34400000000000003 -0.03 0.34400000000000003 -0.105 Q 0.34400000000000003 -0.126 0.333 -0.14100000000000001 Q 0.322 -0.156 0.301 -0.1645 Q 0.28 -0.17300000000000001 0.2665 -0.1765 Q 0.253 -0.18 0.233 -0.183 Q 0.184 -0.192 0.165 -0.196 Q 0.146 -0.2 0.1215 -0.2105 Q 0.097 -0.221 0.078 -0.23800000000000002 Q 0.038 -0.272 0.038 -0.322 Q 0.038 -0.353 0.049 -0.377 Q 0.06 -0.401 0.0795 -0.41450000000000004 Q 0.099 -0.428 0.11800000000000001 -0.4365 Q 0.137 -0.445 0.1615 -0.448 Q 0.186 -0.451 0.1975 -0.452 Q 0.209 -0.453 0.222 -0.453 Q 0.28500000000000003 -0.453 0.323 -0.434 Q 0.362 -0.453 0.368 -0.453 Q 0.38 -0.453 0.383 -0.4475 Q 0.386 -0.442 0.386 -0.425 L 0.386 -0.34500000000000003 Q 0.386 -0.326 0.3825 -0.3215 Q 0.379 -0.317 0.362 -0.317 Q 0.34700000000000003 -0.317 0.3435 -0.321 Q 0.34 -0.325 0.339 -0.337 Q 0.331 -0.421 0.221 -0.421 Q 0.109 -0.421 0.109 -0.359 Q 0.109 -0.342 0.11850000000000001 -0.33 Q 0.128 -0.318 0.1475 -0.311 Q 0.167 -0.304 0.178 -0.301 Q 0.189 -0.298 0.211 -0.294 Z"/></g><g transform="translate(23.938315789473684,19.74663157894737)"><path fill="rgb(0,0,0)" stroke="none" paint-order="stroke fill markers" d=" M 0.217 -0.397 L 0.217 -0.121 Q 0.217 -0.034 0.275 -0.034 Q 0.299 -0.034 0.317 -0.0565 Q 0.335 -0.079 0.335 -0.126 L 0.335 -0.177 L 0.382 -0.177 L 0.382 -0.124 Q 0.382 -0.068 0.34950000000000003 -0.031 Q 0.317 0.006 0.261 0.006 Q 0.10300000000000001 0.006 0.10300000000000001 -0.123 L 0.10300000000000001 -0.397 L 0.021 -0.397 L 0.021 -0.433 Q 0.091 -0.435 0.13 -0.4945 Q 0.169 -0.554 0.17 -0.635 L 0.217 -0.635 L 0.217 -0.444 L 0.363 -0.444 L 0.363 -0.397 L 0.217 -0.397 Z"/></g><g transform="translate(24.385315789473683,19.74663157894737)"><path fill="rgb(0,0,0)" stroke="none" paint-order="stroke fill markers" d=" M 0.374 -0.077 Q 0.331 0.006 0.225 0.006 Q 0.195 0.006 0.165 0.0015 Q 0.135 -0.003 0.10300000000000001 -0.0145 Q 0.07100000000000001 -0.026000000000000002 0.051500000000000004 -0.05 Q 0.032 -0.074 0.032 -0.108 Q 0.032 -0.251 0.357 -0.265 L 0.357 -0.299 Q 0.357 -0.417 0.247 -0.417 Q 0.20800000000000002 -0.417 0.17500000000000002 -0.41000000000000003 Q 0.197 -0.395 0.197 -0.361 Q 0.197 -0.331 0.178 -0.3145 Q 0.159 -0.298 0.134 -0.298 Q 0.111 -0.298 0.0915 -0.3145 Q 0.07200000000000001 -0.331 0.07200000000000001 -0.361 Q 0.07200000000000001 -0.453 0.251 -0.453 Q 0.359 -0.453 0.41500000000000004 -0.41100000000000003 Q 0.47100000000000003 -0.369 0.47100000000000003 -0.299 L 0.47100000000000003 -0.084 Q 0.47100000000000003 -0.07 0.47300000000000003 -0.064 Q 0.47500000000000003 -0.058 0.489 -0.0525 Q 0.503 -0.047 0.532 -0.047 Q 0.541 -0.047 0.545 -0.046 Q 0.549 -0.045 0.5535 -0.04 Q 0.558 -0.035 0.558 -0.024 Q 0.558 -0.013000000000000001 0.5535 -0.0075 Q 0.549 -0.002 0.5435 -0.001 Q 0.538 0 0.526 0 L 0.47800000000000004 0 Q 0.441 0 0.418 -0.007 Q 0.395 -0.014 0.3865 -0.028 Q 0.378 -0.042 0.376 -0.051500000000000004 Q 0.374 -0.061 0.374 -0.077 M 0.357 -0.234 Q 0.335 -0.233 0.3155 -0.2305 Q 0.296 -0.228 0.263 -0.2195 Q 0.23 -0.211 0.20700000000000002 -0.199 Q 0.184 -0.187 0.1665 -0.1635 Q 0.149 -0.14 0.149 -0.109 Q 0.149 -0.076 0.17550000000000002 -0.053 Q 0.202 -0.03 0.24 -0.03 Q 0.253 -0.03 0.2695 -0.034 Q 0.28600000000000003 -0.038 0.3075 -0.048 Q 0.329 -0.058 0.343 -0.082 Q 0.357 -0.106 0.357 -0.139 L 0.357 -0.234 Z"/></g><g transform="translate(24.944315789473684,19.74663157894737)"><path fill="rgb(0,0,0)" stroke="none" paint-order="stroke fill markers" d=" M 0.045 -0.047 L 0.114 -0.047 L 0.114 -0.356 Q 0.114 -0.384 0.10350000000000001 -0.3895 Q 0.093 -0.395 0.045 -0.395 L 0.045 -0.442 L 0.217 -0.45 L 0.217 -0.342 Q 0.272 -0.45 0.392 -0.45 Q 0.46900000000000003 -0.45 0.5075000000000001 -0.4165 Q 0.546 -0.383 0.546 -0.306 L 0.546 -0.047 L 0.615 -0.047 L 0.615 0 Q 0.531 -0.003 0.489 -0.003 Q 0.447 -0.003 0.363 0 L 0.363 -0.047 L 0.432 -0.047 L 0.432 -0.317 Q 0.432 -0.371 0.418 -0.3925 Q 0.404 -0.41400000000000003 0.377 -0.41400000000000003 Q 0.322 -0.41400000000000003 0.275 -0.3725 Q 0.228 -0.331 0.228 -0.256 L 0.228 -0.047 L 0.297 -0.047 L 0.297 0 Q 0.213 -0.003 0.171 -0.003 Q 0.129 -0.003 0.045 0 L 0.045 -0.047 Z"/></g><g transform="translate(25.583315789473684,19.74663157894737)"><path fill="rgb(0,0,0)" stroke="none" paint-order="stroke fill markers" d=" M 0.36 -0.40700000000000003 Q 0.334 -0.41300000000000003 0.295 -0.41300000000000003 Q 0.258 -0.41300000000000003 0.232 -0.398 Q 0.20600000000000002 -0.383 0.1935 -0.3645 Q 0.181 -0.34600000000000003 0.17450000000000002 -0.3155 Q 0.168 -0.28500000000000003 0.167 -0.2685 Q 0.166 -0.252 0.166 -0.227 Q 0.166 -0.034 0.305 -0.034 Q 0.396 -0.034 0.43 -0.116 Q 0.434 -0.126 0.4375 -0.1285 Q 0.441 -0.131 0.454 -0.131 Q 0.47800000000000004 -0.131 0.47800000000000004 -0.117 Q 0.47800000000000004 -0.111 0.47000000000000003 -0.0945 Q 0.462 -0.078 0.4435 -0.0535 Q 0.425 -0.029 0.3835 -0.0115 Q 0.342 0.006 0.28600000000000003 0.006 Q 0.17200000000000001 0.006 0.105 -0.0575 Q 0.038 -0.121 0.038 -0.222 Q 0.038 -0.318 0.1015 -0.3855 Q 0.165 -0.453 0.291 -0.453 Q 0.465 -0.453 0.465 -0.361 Q 0.465 -0.331 0.446 -0.3145 Q 0.427 -0.298 0.402 -0.298 Q 0.379 -0.298 0.3595 -0.3145 Q 0.34 -0.331 0.34 -0.361 Q 0.34 -0.389 0.36 -0.40700000000000003 Z"/></g><g transform="translate(26.094315789473683,19.74663157894737)"><path fill="rgb(0,0,0)" stroke="none" paint-order="stroke fill markers" d=" M 0.462 -0.218 L 0.16 -0.218 Q 0.16 -0.034 0.302 -0.034 Q 0.35100000000000003 -0.034 0.39 -0.056 Q 0.429 -0.078 0.445 -0.114 Q 0.45 -0.127 0.454 -0.131 Q 0.458 -0.135 0.47000000000000003 -0.135 Q 0.494 -0.135 0.494 -0.117 Q 0.494 -0.108 0.484 -0.09 Q 0.47400000000000003 -0.07200000000000001 0.4535 -0.0495 Q 0.433 -0.027 0.3905 -0.0105 Q 0.34800000000000003 0.006 0.293 0.006 Q 0.17400000000000002 0.006 0.10300000000000001 -0.0585 Q 0.032 -0.123 0.032 -0.225 Q 0.032 -0.323 0.0975 -0.388 Q 0.163 -0.453 0.279 -0.453 Q 0.382 -0.453 0.438 -0.399 Q 0.494 -0.343 0.494 -0.245 Q 0.494 -0.226 0.4875 -0.222 Q 0.481 -0.218 0.462 -0.218 M 0.16 -0.251 L 0.399 -0.251 Q 0.394 -0.417 0.279 -0.417 Q 0.218 -0.417 0.184 -0.365 Q 0.164 -0.334 0.16 -0.251 Z"/></g><g transform="translate(26.899093567251462,19.74663157894737)"><path fill="rgb(0,0,0)" stroke="none" paint-order="stroke fill markers" d=" M 0.788 -0.332 L 0.105 -0.332 Q 0.064 -0.332 0.064 -0.362 Q 0.064 -0.393 0.11 -0.393 L 0.783 -0.393 Q 0.8290000000000001 -0.393 0.8290000000000001 -0.362 Q 0.8290000000000001 -0.332 0.788 -0.332 M 0.783 -0.108 L 0.11 -0.108 Q 0.064 -0.108 0.064 -0.139 Q 0.064 -0.169 0.105 -0.169 L 0.788 -0.169 Q 0.8290000000000001 -0.169 0.8290000000000001 -0.139 Q 0.8290000000000001 -0.108 0.783 -0.108 Z"/></g><g transform="translate(28.07087134502924,19.74663157894737)"><path fill="rgb(0,0,0)" stroke="none" paint-order="stroke fill markers" d=" M 0.59 -0.301 Q 0.635 -0.362 0.706 -0.40700000000000003 Q 0.777 -0.452 0.862 -0.452 Q 0.9580000000000001 -0.452 1.0215 -0.384 Q 1.085 -0.316 1.085 -0.222 Q 1.085 -0.129 1.0205 -0.0605 Q 0.9560000000000001 0.008 0.856 0.008 Q 0.776 0.008 0.708 -0.0225 Q 0.64 -0.053 0.601 -0.097 Q 0.595 -0.10300000000000001 0.559 -0.14300000000000002 Q 0.514 -0.082 0.443 -0.037 Q 0.372 0.008 0.28700000000000003 0.008 Q 0.191 0.008 0.1275 -0.06 Q 0.064 -0.128 0.064 -0.222 Q 0.064 -0.315 0.1285 -0.3835 Q 0.193 -0.452 0.293 -0.452 Q 0.373 -0.452 0.441 -0.4215 Q 0.509 -0.391 0.548 -0.34700000000000003 Q 0.554 -0.341 0.59 -0.301 M 0.631 -0.252 Q 0.675 -0.2 0.6975 -0.17550000000000002 Q 0.72 -0.151 0.7535000000000001 -0.121 Q 0.787 -0.091 0.8175 -0.0795 Q 0.848 -0.068 0.882 -0.068 Q 0.9500000000000001 -0.068 0.9995 -0.1125 Q 1.049 -0.157 1.049 -0.223 Q 1.049 -0.296 0.9985 -0.34900000000000003 Q 0.9480000000000001 -0.402 0.876 -0.402 Q 0.737 -0.402 0.631 -0.252 M 0.518 -0.192 Q 0.47400000000000003 -0.244 0.4515 -0.2685 Q 0.429 -0.293 0.3955 -0.323 Q 0.362 -0.353 0.3315 -0.3645 Q 0.301 -0.376 0.267 -0.376 Q 0.199 -0.376 0.1495 -0.3315 Q 0.1 -0.28700000000000003 0.1 -0.221 Q 0.1 -0.148 0.1505 -0.095 Q 0.201 -0.042 0.273 -0.042 Q 0.41200000000000003 -0.042 0.518 -0.192 Z"/></g></g><path fill="none" stroke="rgb(192,192,192)" paint-order="fill stroke markers" d=" M 421 354 L 563 354 L 563 384 L 421 384 L 421 354 Z" stroke-opacity="1" stroke-linecap="square" stroke-miterlimit="10" stroke-width="2"/></g></g></svg>